#!OML:ASF E:\Mandelcareful walks\Project 1\Capture day 1\Session 1\Subject1.ASF
:FULLY-SPECIFIED
:DEGREES
1141
root -2.16537 15.0602 0.93678 143.686 79.8249 132.247
lowerback 32.9956 4.9609 -3.35636
upperback 9.01249 5.94781 -5.7766
thorax -6.59409 3.46964 -6.42317
lowerneck -21.6818 16.0846 8.87822
upperneck 22.3277 27.6754 -21.0827
head 16.3038 10.5167 -3.54339
rclavicle 4.25399e-014 -2.34566e-014
rhumerus -13.4308 28.283 -78.9809
rradius 47.5559
rwrist -15.5084
rhand -10.3964 -32.164
rfingers 7.12502
rthumb 15.6019 -61.5548
lclavicle 4.25399e-014 -2.34566e-014
lhumerus -18.0997 -23.7081 77.7086
lradius 47.9355
lwrist 29.3765
lhand -24.02 -12.4949
lfingers 7.12502
lthumb 2.45809 17.4707
rfemur -42.8967 -26.9559 10.7703
rtibia 69.4644
rfoot -30.3786 -19.7748
rtoes -11.7889
lfemur -42.7609 19.901 -11.5681
ltibia 47.7826
lfoot -6.96674 -1.72406
ltoes -18.9234
1142
root -2.16348 15.0592 0.968658 145.815 79.529 134.427
lowerback 32.9754 4.97122 -3.25962
upperback 9.00415 6.00145 -5.68929
thorax -6.59303 3.49386 -6.39869
lowerneck -22.0527 15.8191 8.80978
upperneck 22.7482 27.3775 -20.9203
head 16.4784 10.348 -3.54941
rclavicle -4.77083e-014 4.73108e-014
rhumerus -13.0709 28.2648 -78.7581
rradius 47.5327
rwrist -15.4696
rhand -10.0267 -32.2413
rfingers 7.12502
rthumb 15.9579 -61.6039
lclavicle -4.77083e-014 4.73108e-014
lhumerus -18.0699 -23.7848 77.7727
lradius 47.9307
lwrist 29.2927
lhand -24.1926 -11.983
lfingers 7.12502
lthumb 2.29137 17.9844
rfemur -42.797 -27.3359 10.9743
rtibia 69.5477
rfoot -30.3507 -19.8685
rtoes -12.1062
lfemur -42.8504 19.8858 -11.4914
ltibia 47.5944
lfoot -6.64488 -2.04993
ltoes -18.3897
1143
root -2.16156 15.05 1.00226 148.482 79.2163 137.095
lowerback 32.9156 4.90495 -3.14257
upperback 8.97996 5.96315 -5.60171
thorax -6.60072 3.47215 -6.35124
lowerneck -22.4467 15.5416 8.69713
upperneck 23.0354 26.9833 -20.7028
head 16.5546 10.1486 -3.55093
rclavicle -3.57812e-015 -4.85035e-014
rhumerus -12.7674 28.3048 -78.6969
rradius 47.6083
rwrist -15.3977
rhand -10.1865 -31.9907
rfingers 7.12502
rthumb 15.804 -61.3656
lclavicle -3.57812e-015 -4.85035e-014
lhumerus -18.0987 -23.7241 77.6808
lradius 47.9859
lwrist 29.2823
lhand -23.9692 -11.9954
lfingers 7.12502
lthumb 2.50708 17.9696
rfemur -42.7597 -27.6876 11.2953
rtibia 69.6857
rfoot -30.5084 -19.9384
rtoes -11.6407
lfemur -43.0971 19.952 -11.3622
ltibia 47.4942
lfoot -6.2893 -2.51042
ltoes -17.3291
1144
root -2.159 15.037 1.03503 150.749 78.7001 139.364
lowerback 32.892 4.80336 -3.14294
upperback 8.98153 5.8491 -5.52745
thorax -6.60538 3.41811 -6.23156
lowerneck -23.1066 15.1472 8.2091
upperneck 23.4911 26.3788 -20.043
head 16.5607 9.84471 -3.3742
rclavicle 1.94809e-014 -4.8901e-014
rhumerus -12.6052 28.3416 -78.5901
rradius 48.0207
rwrist -15.309
rhand -10.2714 -32.0969
rfingers 7.12502
rthumb 15.7223 -61.4783
lclavicle 1.94809e-014 -4.8901e-014
lhumerus -18.088 -23.5883 77.5559
lradius 48.0011
lwrist 29.1773
lhand -23.7303 -12.5606
lfingers 7.12502
lthumb 2.73782 17.4016
rfemur -42.6867 -28.1904 11.4304
rtibia 69.8525
rfoot -30.6976 -19.9794
rtoes -11.2573
lfemur -43.3915 19.9456 -11.4211
ltibia 47.4323
lfoot -6.00221 -2.98833
ltoes -16.1021
1145
root -2.16303 15.0209 1.06105 152.158 78.2286 140.757
lowerback 32.9972 4.7784 -3.1651
upperback 8.97816 5.817 -5.47061
thorax -6.6571 3.40415 -6.15765
lowerneck -24.2182 14.4187 7.17702
upperneck 24.2923 25.2928 -18.7697
head 16.5291 9.31006 -2.99465
rclavicle 5.725e-014 -5.36719e-014
rhumerus -12.411 28.2923 -78.315
rradius 48.5052
rwrist -15.3441
rhand -9.8912 -32.5279
rfingers 7.12502
rthumb 16.0884 -61.8801
lclavicle 5.725e-014 -5.36719e-014
lhumerus -18.0054 -23.4736 77.5448
lradius 48.1116
lwrist 29.0252
lhand -23.6737 -12.7046
lfingers 7.12502
lthumb 2.79253 17.2569
rfemur -42.7252 -28.6467 11.4624
rtibia 70.0407
rfoot -30.746 -20.0386
rtoes -11.3436
lfemur -43.7118 19.9599 -11.6064
ltibia 47.4095
lfoot -5.81123 -3.31327
ltoes -15.5098
1146
root -2.15696 15.011 1.09677 155.192 77.185 144
lowerback 33.3325 4.51376 -2.96061
upperback 9.05804 5.57746 -5.30022
thorax -6.71643 3.29914 -6.0232
lowerneck -25.5987 13.2953 5.8874
upperneck 25.1907 23.5296 -17.0321
head 16.3982 8.51154 -2.55708
rclavicle -2.14687e-014 1.63003e-014
rhumerus -12.1498 28.3872 -77.9855
rradius 48.8777
rwrist -15.488
rhand -9.94942 -32.6503
rfingers 7.12502
rthumb 16.0324 -62.007
lclavicle -2.14687e-014 1.63003e-014
lhumerus -17.8232 -23.4541 77.5762
lradius 48.2541
lwrist 28.9088
lhand -23.5381 -12.8574
lfingers 7.12502
lthumb 2.92348 17.1023
rfemur -42.1749 -29.6037 11.4225
rtibia 70.2532
rfoot -31.311 -19.9392
rtoes -10.4741
lfemur -43.964 19.452 -11.656
ltibia 47.44
lfoot -5.60056 -3.85735
ltoes -15.4904
1147
root -2.15622 14.9981 1.13096 157.993 76.0674 147.07
lowerback 33.7775 4.24078 -2.81024
upperback 9.1237 5.31151 -5.05576
thorax -6.84073 3.17901 -5.78002
lowerneck -26.913 11.908 4.52582
upperneck 25.9136 21.3549 -15.2201
head 16.1709 7.5783 -2.16451
rclavicle -1.66979e-014 3.89618e-014
rhumerus -11.9547 28.8099 -77.585
rradius 49.2806
rwrist -15.7428
rhand -10.6594 -32.5613
rfingers 7.12502
rthumb 15.3486 -61.9716
lclavicle -1.66979e-014 3.89618e-014
lhumerus -17.6696 -23.2896 77.6638
lradius 48.2786
lwrist 28.5305
lhand -23.1863 -13.3328
lfingers 7.12502
lthumb 3.2632 16.6219
rfemur -41.5856 -30.5745 11.3823
rtibia 70.4955
rfoot -31.8506 -19.8361
rtoes -9.39869
lfemur -44.2048 18.8638 -11.6351
ltibia 47.5131
lfoot -5.34972 -4.49317
ltoes -15.2121
1148
root -2.17809 14.9622 1.14897 158.948 75.6961 147.783
lowerback 33.7959 4.31956 -2.98323
upperback 9.03525 5.34672 -4.96148
thorax -6.95764 3.18654 -5.60902
lowerneck -28.1968 10.3162 2.92779
upperneck 26.6018 18.9538 -13.211
head 15.9371 6.57235 -1.68503
rclavicle 3.4191e-014 -2.70347e-014
rhumerus -11.8422 29.0501 -77.2505
rradius 49.6821
rwrist -15.9566
rhand -11.1653 -32.4322
rfingers 7.12502
rthumb 14.8613 -61.8792
lclavicle 3.4191e-014 -2.70347e-014
lhumerus -17.6165 -23.0913 77.7475
lradius 48.3499
lwrist 28.1635
lhand -23.0258 -13.1963
lfingers 7.12502
lthumb 3.41816 16.756
rfemur -42.2279 -30.8654 11.5576
rtibia 70.8921
rfoot -31.7056 -20.0451
rtoes -9.70613
lfemur -44.9135 18.9618 -11.8744
ltibia 47.7048
lfoot -5.10816 -4.88468
ltoes -14.2441
1149
root -2.18227 14.9356 1.16314 159.934 74.6605 148.925
lowerback 34.2525 4.13476 -2.95992
upperback 9.09699 5.14371 -4.86581
thorax -7.07733 3.10264 -5.47784
lowerneck -29.4385 8.42878 1.02542
upperneck 27.1866 16.2063 -10.9532
head 15.6777 5.44962 -1.10935
rclavicle -4.81059e-014 1.51076e-014
rhumerus -11.6971 28.9565 -76.8835
rradius 50.0677
rwrist -16.1971
rhand -11.4355 -32.3771
rfingers 7.12502
rthumb 14.601 -61.8432
lclavicle -4.81059e-014 1.51076e-014
lhumerus -17.4984 -23.1303 77.8276
lradius 48.5171
lwrist 28.0666
lhand -23.1385 -13.1024
lfingers 7.12502
lthumb 3.30937 16.8517
rfemur -41.9371 -31.8593 11.1683
rtibia 71.2379
rfoot -31.8286 -20.121
rtoes -10.2786
lfemur -45.2593 18.5223 -12.2341
ltibia 47.9572
lfoot -4.9672 -5.40635
ltoes -12.7929
